<?xml version="1.0" encoding="utf-8"?>
<!-- Generator: Adobe Adobe Illustrator 24.2.0, SVG Export Plug-In . SVG Version: 6.00 Build 0)  -->
<svg version="1.1" id="New" xmlns="http://www.w3.org/2000/svg" xmlns:xlink="http://www.w3.org/1999/xlink" x="0px" y="0px"
	 viewBox="0 0 564 1000" style="enable-background:new 0 0 564 1000;" xml:space="preserve">
<style type="text/css">
	.st0{fill:url(#SVGID_1_);}
	.st1{fill:url(#Bottom_1_);}
	.st2{fill:url(#SVGID_2_);}
</style>
<g>
	<g>
		<linearGradient id="SVGID_1_" gradientUnits="userSpaceOnUse" x1="407.5518" y1="1.6509" x2="206.8929" y2="876.1806">
			<stop  offset="0" style="stop-color:#2A7F62"/>
			<stop  offset="1" style="stop-color:#0F231A"/>
		</linearGradient>
		<path class="st0" d="M458.11,731.5c-0.43,0-0.84,0.04-1.25,0.09C457.23,731.54,457.63,731.5,458.11,731.5H232.46
			c-38.81-20.69-74.09-43.89-96.72-71.27h278.37c-0.3,0-0.56-0.02-0.81-0.04c0.27,0.02,0.54,0.04,0.81,0.04c5.52,0,10-4.48,10-10
			c0-5.52-4.48-10-10-10c-0.27,0-0.54,0.02-0.81,0.04c0.25-0.02,0.52-0.04,0.81-0.04h-292.1c-10.38-18.87-14.69-39.63-10.52-62.72
			c0.01,0.46,0.8-4.75,2.28-10.31h202.34c5.52,0,10-4.48,10-10c0-5.52-4.48-10-10-10H123.87l2.69-4.32
			c91.01-126.74,442.29-246.47,290-442.26c-3.09-1.28-4.79-0.66-5.35,2c25.91,86.93-28.13,167.77-94.81,219.67
			C220.61,411.32-6.78,477.19,57.95,638.39c53.91,134.26,231.29,144.12,342.85,216.46c3.25,2.13,4.47,3.49,8.83-0.88
			c7.46-7.46,7.77-8.14,12.98-14.19c6.32-7.36,7.16-6.88-2.64-13.44c-32.91-24.27-90.79-47.61-147.7-74.84h185.84
			c-0.48,0-0.88-0.04-1.25-0.09c0.41,0.05,0.83,0.09,1.25,0.09c5.52,0,10-4.48,10-10C468.11,735.98,463.63,731.5,458.11,731.5z"/>
	</g>
	<linearGradient id="Bottom_1_" gradientUnits="userSpaceOnUse" x1="282" y1="42.4973" x2="282" y2="974.9769">
		<stop  offset="0" style="stop-color:#2A7F62"/>
		<stop  offset="1" style="stop-color:#0F231A"/>
	</linearGradient>
	<path id="Bottom" class="st1" d="M52.75,921.72c-18.58-22.56-34.58-50.47-28.19-80.4c5.62-23.56,41.56-27.35,51.93-7.44
		c6.71,11.03,5.91,24,10.91,35.59c8.95,20.77,23.05,36.34,41.99,47.85c94.09,52.48,220.59,25.79,295.55-48.65
		c121.88-131.02,40.38-252.7-93.33-326.93c-32.82-20.7-65.79-41.19-98.78-61.63c-5.37-3.33-5.23-3.66,0.03-8.92
		c26.98-24.83,26.95-25.2,38.49-17.27c93.62,54.72,95.71,53.6,141.57,83.64c189.91,111,159.35,328.1-31.89,416.06
		C278.72,999.49,137.59,1005.09,52.75,921.72z"/>
	<g id="New_top">
		<linearGradient id="SVGID_2_" gradientUnits="userSpaceOnUse" x1="314.5713" y1="16.5149" x2="16.2654" y2="954.3541">
			<stop  offset="0" style="stop-color:#2A7F62"/>
			<stop  offset="1" style="stop-color:#0F231A"/>
		</linearGradient>
		<path class="st2" d="M498.88,56.43c-7.05-33.34-76.87-39.12-105.06-41.84C171.49-6.83-108.85,256.06,140.35,417.6
			c11.52-7.41,22.88-15.05,34.28-22.64c4.35-2.9,3.99-5.02-0.4-8.17c-25.03-17.01-44.6-39.31-57.54-64.08h156.68
			c5.52,0,10-4.48,10-10s-4.48-10-10-10H107.87c-8.34-23.07-11.17-47.51-7.6-71.36h247.09c5.52,0,10-4.48,10-10s-4.48-10-10-10
			H104.82c7.07-22.84,20.48-44.57,41.01-63.33l8.78-8.01h219.98c5.52,0,10-4.48,10-10s-4.48-10-10-10H177.91
			c77.53-52.8,195.45-91.92,280.92-39.57C475.35,91.91,502.61,77.5,498.88,56.43z"/>
	</g>
</g>
<g id="Middle">
</g>
</svg>
